<svg width="129" height="22" viewBox="0 0 129 22" fill="none" xmlns="http://www.w3.org/2000/svg">
<path d="M42.8289 0.505726C42.6454 0.564634 42.2522 0.74136 41.9639 0.906301C41.4922 1.1655 41.3873 1.31866 41.1252 2.03734L40.8238 2.87383L41.1121 4.08734C41.5315 5.83101 41.597 6.99739 41.3349 8.12843C41.0073 9.61291 40.2341 11.6747 39.5789 12.8293C38.4388 14.8439 36.3158 16.3638 33.7866 16.9646C32.6596 17.2356 30.6284 17.2474 29.9469 16.9764C29.4751 16.7997 28.0205 15.6569 28.0205 15.4802C28.0205 15.3388 29.1213 15.1503 30.6808 15.0089C32.3844 14.8675 33.5507 14.4787 35.215 13.4655C37.7835 11.9221 39.1726 9.97814 38.9892 8.18734C38.8319 6.69107 37.9146 5.33619 36.6041 4.67642C34.0618 3.404 31.1919 3.33331 28.335 4.46435C27.0377 4.98274 25.4913 5.99596 24.2988 7.11521C23.3946 7.97527 23.0538 8.41119 22.5821 9.27124C22.2675 9.87211 21.953 10.5908 21.8744 10.8853C21.5337 12.3227 21.4682 12.7115 21.4682 13.1945C21.4682 14.4905 20.3674 15.1031 19.0438 14.5494C17.6809 13.9839 17.4319 13.0178 17.8644 10.0488C18.1134 8.38762 18.1396 6.72642 17.9299 6.07843C17.563 5.0063 16.3573 4.28762 14.9027 4.28762C14.2999 4.28762 14.1688 4.33475 13.5136 4.84136C12.3473 5.74854 11.8362 6.74998 11.692 8.41119C11.6265 9.1063 11.6789 9.64826 11.9672 10.9796C12.3866 12.9707 12.3604 13.6187 11.7969 14.7026C11.1285 15.9868 9.30698 17.3652 8.2586 17.3652C7.89167 17.3652 7.06607 17 6.76467 16.6937C6.18806 16.1281 5.97838 14.7143 6.26669 13.3477C6.34531 12.9942 6.55499 11.71 6.72535 10.473C6.90882 9.24768 7.17091 7.78676 7.31506 7.23303C7.81304 5.40688 7.85236 5.1359 7.65579 4.69998C7.49853 4.38188 7.36748 4.28762 6.98745 4.21693C6.43705 4.13446 3.06914 4.22871 2.63668 4.34653C2.32217 4.44078 2.23043 4.80602 1.87661 7.40975C1.75866 8.24624 1.49657 9.6836 1.28689 10.6026C0.395772 14.5258 0.474401 16.8233 1.5752 18.6965C2.36148 20.0161 4.18304 21.1825 5.96528 21.4888C7.45922 21.748 10.1064 21.1707 11.6527 20.2399C12.688 19.6273 13.9985 18.402 14.7192 17.3888C14.9944 16.9882 15.2696 16.6583 15.322 16.6583C15.3745 16.6583 15.7545 16.9293 16.1476 17.2592C16.6849 17.6951 17.1043 17.9189 17.6809 18.0839C19.1093 18.4845 21.4551 18.3195 22.1234 17.7776C22.3462 17.6008 22.3986 17.6008 22.6476 17.754C22.8048 17.8483 23.2242 18.2842 23.578 18.7083C24.3381 19.6037 24.9671 20.0279 26.6183 20.723C28.1909 21.3945 29.0689 21.5359 31.0739 21.4534C36.1192 21.2649 40.7714 18.296 43.0778 13.8189C43.9559 12.0988 44.4669 10.4376 44.9911 7.55113C45.0829 7.03274 45.1091 7.03274 46.7996 7.29193C48.477 7.56291 49.8137 7.9517 50.5344 8.38762C50.8227 8.56435 49.9447 9.97814 48.5163 11.6629C47.8349 12.4641 46.9831 13.5833 46.6161 14.1253C46.2623 14.679 45.856 15.1738 45.7119 15.2445C45.5808 15.3034 45.1615 15.3623 44.7815 15.3623C42.9992 15.3623 41.7543 16.7054 41.5577 18.8143C41.4135 20.3813 42.0819 21.1942 43.6544 21.3356C44.8077 21.4299 45.7512 21.206 46.3671 20.6994L46.8651 20.2988L48.6211 20.8643L50.3641 21.4181L52.3953 21.4299C54.7017 21.4299 55.6453 21.2414 57.0082 20.5109C57.7813 20.0868 57.8993 20.075 57.8993 20.4402C57.8993 20.829 58.4104 20.935 60.5202 20.9939C62.2894 21.0411 62.617 21.0175 62.9053 20.8526C63.2853 20.6287 63.4295 20.1339 63.7309 18.0132C64.0454 15.7511 65.2641 12.8646 66.7974 10.7322C68.1996 8.7882 69.3528 8.05774 70.3881 8.45831C71.0826 8.71751 71.3054 9.24768 71.2268 10.4023C71.1744 11.227 70.1784 16.7879 70.0211 17.1414C69.9818 17.2356 69.8901 17.7776 69.8246 18.3666C69.759 18.9439 69.6542 19.6037 69.6149 19.804C69.379 20.8761 69.877 21.0646 72.6814 20.9939C74.136 20.9586 74.5947 20.8997 74.6733 20.7701C74.8306 20.5462 75.0402 19.6862 75.2761 18.1899C75.8134 14.9146 78.4868 10.0488 80.4787 8.75285C81.3698 8.17555 82.392 8.30515 82.7458 9.05918C83.0079 9.63647 82.9817 10.0488 82.5362 12.0281C82.0775 14.1488 81.8285 16.2342 81.9333 17.1885C82.2216 19.7215 85.1964 21.8187 88.1188 21.5595C89.9665 21.3945 91.2639 20.7347 93.0068 19.1207C93.6227 18.5434 94.1862 18.0721 94.278 18.0721C94.3566 18.0721 94.8415 18.4845 95.3395 18.9793C96.0864 19.7333 96.4665 19.9925 97.4231 20.4402C98.8908 21.1353 99.7033 21.371 100.988 21.477C103.111 21.6655 105.6 21.2414 107.789 20.3106C109.23 19.7097 109.938 19.262 111.118 18.2135C112.114 17.3416 112.127 17.3416 112.284 17.6126C112.664 18.2724 113.463 19.0853 114.289 19.6744C116.032 20.8997 117.945 21.4888 120.212 21.4888C123.017 21.4888 125.428 20.5462 128.141 18.4138L128.822 17.86L128.652 17.377C128.547 17.1178 128.206 16.5758 127.892 16.187C127.328 15.5037 127.302 15.4802 126.843 15.5508C126.581 15.5862 125.677 15.9043 124.838 16.2577C122.728 17.1414 121.824 17.3299 120.632 17.1414C119.439 16.9646 118.338 16.4816 117.958 15.9632C117.788 15.7393 117.657 15.5273 117.657 15.4684C117.657 15.4212 118.05 15.3506 118.548 15.3152C120.081 15.1856 122.008 14.8204 123.135 14.4198C125.978 13.4302 128.049 11.4744 128.534 9.30659C128.861 7.85745 128.324 6.46722 126.987 5.32441C124.445 3.14481 120.487 3.00343 117.028 4.95918C115.56 5.78389 114.394 6.71463 113.398 7.84567C112.349 9.03561 111.865 9.95458 111.288 11.7925C110.724 13.5715 110.489 14.0192 109.755 14.7379C108.156 16.3049 105.469 17.3181 103.176 17.2238C101.8 17.1767 101.184 16.9411 100.162 16.1164C99.533 15.6097 99.5199 15.5744 99.7558 15.4095C99.913 15.3152 100.319 15.2445 100.791 15.2445C101.813 15.2445 104.198 14.7497 105.273 14.3138C109.519 12.5819 111.419 9.35371 109.846 6.53791C108.785 4.62929 106.688 3.59251 103.884 3.58073C101.184 3.58073 98.5763 4.69998 96.2175 6.89136C94.2649 8.71751 93.3475 10.2256 93.151 11.9221C92.9413 13.6658 92.2336 14.9735 90.7528 16.3402C89.9534 17.0825 89.272 17.4123 88.7609 17.2945C88.2629 17.1885 87.8174 16.623 87.6339 15.8807C87.4766 15.2681 87.5028 15.0678 87.8829 13.3123C88.905 8.61147 88.8133 6.78532 87.4242 5.14768C86.4282 3.96952 84.1742 3.41578 82.2085 3.87527C80.6098 4.25228 79.6531 4.90027 78.0543 6.66751C77.4777 7.3155 76.9535 7.79854 76.9011 7.73963C76.8487 7.69251 76.6521 7.19768 76.4687 6.64395C75.879 4.92383 75.1189 4.13446 73.6774 3.74567C72.4324 3.41578 70.9909 3.61607 69.4314 4.35831C68.3437 4.86492 66.9677 5.87814 66.3911 6.58504C66.1553 6.8678 65.9063 7.10343 65.8407 7.11521C65.7752 7.11521 65.7752 6.84423 65.8276 6.49078C66.0242 5.33619 65.9718 4.51147 65.6966 4.33475C65.3428 4.09912 61.739 4.09912 61.123 4.33475C60.5464 4.54682 60.4154 4.92383 60.245 6.76176C60.114 8.26981 59.4456 11.2506 58.8559 12.9471C57.991 15.433 56.366 16.9411 54.0858 17.377C53.0243 17.5773 51.1372 17.4595 50.4689 17.1531C50.1544 17.0118 49.9054 16.8233 49.9054 16.7526C49.9054 16.6701 50.102 16.4227 50.351 16.187C50.5999 15.9632 51.2814 15.1149 51.8711 14.302C52.4739 13.4891 53.5878 12.1106 54.361 11.2388C56.5495 8.75285 56.8902 8.22268 57.0606 7.13877C57.1523 6.45544 56.8902 5.80745 56.4053 5.51291C55.7239 5.12412 54.3217 4.75889 51.8973 4.34653C47.6383 3.62785 46.3671 3.38044 46.1706 3.22728C46.0526 3.14481 45.974 2.87383 45.974 2.59107C45.974 2.11981 45.6595 1.37757 45.2663 0.941647C45.1615 0.82383 44.729 0.647106 44.3097 0.564634C43.4579 0.387911 43.3006 0.376127 42.8289 0.505726ZM32.9086 8.06952C33.7211 8.26981 33.9701 8.56435 33.8783 9.25946C33.6424 11.0149 31.4671 12.4287 28.5447 12.7468L27.6012 12.8529L27.6667 12.2756C27.8895 10.6261 29.6062 8.67038 31.2967 8.14021C32.0175 7.91636 32.2664 7.90458 32.9086 8.06952ZM104.591 8.12843L105.207 8.31693V9.03561C105.207 9.93101 104.88 10.579 104.08 11.2388C103.084 12.0635 101.053 12.7704 99.6771 12.7704C98.9695 12.7704 98.9695 12.7586 99.2316 11.875C99.7033 10.2962 101.079 8.76464 102.495 8.25803C103.477 7.90458 103.792 7.88101 104.591 8.12843ZM122.899 8.11665C123.397 8.35228 123.554 8.62326 123.554 9.28303C123.554 9.75429 123.475 9.89567 122.768 10.6261C122.335 11.0738 121.824 11.5333 121.641 11.6511C121.103 11.9692 118.325 12.7704 117.762 12.7704C117.146 12.7704 117.133 12.629 117.591 11.5097C118.26 9.90745 119.465 8.70573 120.867 8.23446C121.811 7.91636 122.388 7.88101 122.899 8.11665Z" fill="#F6951F" style="fill:#F6951F;fill:color(display-p3 0.9635 0.5840 0.1202);fill-opacity:1;"/>
</svg>
