<svg width="73" height="14" viewBox="0 0 73 14" fill="none" xmlns="http://www.w3.org/2000/svg">
<path d="M24.0926 0.345164C23.9888 0.382521 23.7662 0.494589 23.6031 0.599187C23.336 0.763555 23.2767 0.860682 23.1284 1.31643L22.9578 1.84689L23.1209 2.61643C23.3583 3.72218 23.3954 4.46183 23.247 5.17907C23.0616 6.12045 22.624 7.42792 22.2531 8.16011C21.6078 9.43769 20.4062 10.4015 18.9746 10.7825C18.3368 10.9544 17.1871 10.9618 16.8014 10.79C16.5343 10.6779 15.711 9.95321 15.711 9.84114C15.711 9.75149 16.3341 9.63195 17.2167 9.54229C18.181 9.45263 18.8411 9.20608 19.7831 8.56355C21.2369 7.58482 22.0232 6.35206 21.9193 5.21643C21.8303 4.26758 21.3111 3.40838 20.5694 2.98999C19.1304 2.18309 17.506 2.13827 15.889 2.85551C15.1547 3.18424 14.2795 3.82677 13.6045 4.53654C13.0927 5.08195 12.8998 5.35838 12.6328 5.90378C12.4548 6.28482 12.2768 6.74057 12.2323 6.92735C12.0394 7.83884 12.0023 8.08539 12.0023 8.39172C12.0023 9.21355 11.3793 9.60206 10.6301 9.25091C9.85874 8.89229 9.71781 8.27965 9.96258 6.39689C10.1035 5.34344 10.1183 4.28999 9.99967 3.87907C9.79198 3.19919 9.10959 2.74344 8.28626 2.74344C7.94507 2.74344 7.87089 2.77332 7.50003 3.09459C6.83988 3.66988 6.55061 4.30493 6.46902 5.35838C6.43193 5.79919 6.4616 6.14286 6.62478 6.98712C6.86214 8.24976 6.8473 8.66068 6.52836 9.34804C6.15007 10.1624 5.11906 11.0365 4.52567 11.0365C4.31799 11.0365 3.8507 10.8049 3.6801 10.6107C3.35373 10.2521 3.23506 9.35551 3.39824 8.48884C3.44274 8.2647 3.56142 7.45034 3.65785 6.66585C3.76169 5.88884 3.91003 4.96241 3.99163 4.61126C4.27348 3.45321 4.29574 3.28137 4.18448 3.00493C4.09547 2.80321 4.0213 2.74344 3.80619 2.69861C3.49466 2.64631 1.58841 2.70608 1.34364 2.7808C1.16562 2.84057 1.1137 3.07218 0.913431 4.72332C0.846675 5.25378 0.698328 6.16528 0.57965 6.74804C0.0752714 9.23597 0.119775 10.6929 0.742832 11.8808C1.18787 12.7176 2.21888 13.4572 3.22764 13.6515C4.07322 13.8159 5.57152 13.4498 6.44676 12.8595C7.03273 12.471 7.77447 11.694 8.18242 11.0515C8.33819 10.7975 8.49395 10.5883 8.52362 10.5883C8.55329 10.5883 8.76839 10.7601 8.99091 10.9693C9.29502 11.2457 9.53238 11.3877 9.85874 11.4923C10.6672 11.7463 11.9949 11.6417 12.3732 11.298C12.4993 11.186 12.529 11.186 12.6699 11.2831C12.7589 11.3429 12.9963 11.6193 13.1965 11.8883C13.6267 12.4561 13.9828 12.725 14.9174 13.1659C15.8074 13.5917 16.3044 13.6814 17.4393 13.6291C20.2949 13.5095 22.9281 11.6268 24.2335 8.78769C24.7305 7.69689 25.0198 6.64344 25.3165 4.81298C25.3684 4.48424 25.3832 4.48424 26.3401 4.64861C27.2895 4.82045 28.0461 5.067 28.454 5.34344C28.6172 5.45551 28.1202 6.35206 27.3117 7.42045C26.926 7.9285 26.4439 8.63827 26.2362 8.98195C26.036 9.33309 25.806 9.64689 25.7244 9.69172C25.6503 9.72907 25.4129 9.76643 25.1978 9.76643C24.189 9.76643 23.4844 10.6182 23.3731 11.9555C23.2915 12.9492 23.6698 13.4647 24.5599 13.5544C25.2126 13.6141 25.7467 13.4722 26.0953 13.1509L26.3771 12.8969L27.3711 13.2555L28.3576 13.6067L29.5073 13.6141C30.8127 13.6141 31.3468 13.4946 32.1182 13.0314C32.5558 12.7624 32.6225 12.7549 32.6225 12.9865C32.6225 13.2331 32.9118 13.3003 34.106 13.3377C35.1074 13.3676 35.2928 13.3526 35.456 13.248C35.6711 13.1061 35.7527 12.7923 35.9233 11.4475C36.1013 10.013 36.7911 8.18252 37.6589 6.83022C38.4526 5.59746 39.1053 5.13424 39.6913 5.38827C40.0844 5.55264 40.2105 5.88884 40.166 6.62103C40.1363 7.14401 39.5726 10.6705 39.4836 10.8946C39.4613 10.9544 39.4094 11.298 39.3723 11.6716C39.3352 12.0377 39.2759 12.4561 39.2536 12.5831C39.1201 13.263 39.402 13.3825 40.9893 13.3377C41.8126 13.3153 42.0722 13.2779 42.1167 13.1957C42.2057 13.0538 42.3244 12.5084 42.4579 11.5595C42.762 9.48252 44.2752 6.39689 45.4026 5.57505C45.907 5.20896 46.4855 5.29114 46.6858 5.7693C46.8342 6.13539 46.8193 6.39689 46.5671 7.65206C46.3075 8.99689 46.1666 10.3193 46.2259 10.9245C46.3891 12.5308 48.0729 13.8607 49.7269 13.6963C50.7728 13.5917 51.5071 13.1733 52.4936 12.1498C52.8422 11.7837 53.1612 11.4848 53.2131 11.4848C53.2576 11.4848 53.532 11.7463 53.8139 12.0601C54.2367 12.5383 54.4518 12.7026 54.9932 12.9865C55.824 13.4273 56.2839 13.5768 57.0108 13.644C58.2124 13.7636 59.6217 13.4946 60.8604 12.9044C61.6763 12.5233 62.0768 12.2394 62.7444 11.5745C63.3081 11.0216 63.3155 11.0216 63.4045 11.1934C63.6196 11.6118 64.0721 12.1273 64.5394 12.5009C65.5259 13.2779 66.6088 13.6515 67.892 13.6515C69.4793 13.6515 70.8441 13.0538 72.3795 11.7015L72.7652 11.3503L72.6688 11.044C72.6094 10.8796 72.4166 10.536 72.2385 10.2894C71.9196 9.85608 71.9048 9.84114 71.6452 9.88597C71.4968 9.90838 70.985 10.1101 70.5103 10.3342C69.3161 10.8946 68.8043 11.0141 68.1293 10.8946C67.4544 10.7825 66.8313 10.4762 66.6162 10.1475C66.5198 10.0055 66.4456 9.87103 66.4456 9.83367C66.4456 9.80378 66.6681 9.75896 66.95 9.73654C67.8178 9.65436 68.9082 9.42275 69.5461 9.16873C71.1556 8.54114 72.3276 7.30091 72.602 5.9262C72.7874 5.00723 72.4833 4.12562 71.7268 3.40091C70.2878 2.01873 68.0478 1.92907 66.0896 3.1693C65.2588 3.69229 64.5987 4.28252 64.035 4.99976C63.4416 5.75436 63.1671 6.33712 62.8408 7.50263C62.5218 8.6308 62.3883 8.9147 61.973 9.37045C61.068 10.3641 59.5475 11.0067 58.2495 10.9469C57.4706 10.917 57.122 10.7676 56.5435 10.2446C56.1874 9.92332 56.18 9.90091 56.3135 9.79631C56.4025 9.73654 56.6325 9.69172 56.8995 9.69172C57.478 9.69172 58.828 9.37792 59.4362 9.10149C61.8394 8.00321 62.915 5.95608 62.0249 4.17045C61.4241 2.96011 60.2373 2.30264 58.65 2.29516C57.122 2.29516 55.646 3.00493 54.3108 4.39459C53.2057 5.55264 52.6864 6.50896 52.5752 7.58482C52.4565 8.69057 52.056 9.51988 51.2178 10.3865C50.7654 10.8572 50.3797 11.0664 50.0904 10.9917C49.8085 10.9245 49.5563 10.5659 49.4525 10.0952C49.3635 9.70666 49.3783 9.57965 49.5934 8.46643C50.172 5.48539 50.12 4.32735 49.3338 3.28884C48.7701 2.54172 47.4943 2.19057 46.3817 2.48195C45.4768 2.72103 44.9353 3.13195 44.0304 4.25264C43.7041 4.66356 43.4074 4.96988 43.3777 4.93252C43.348 4.90264 43.2368 4.58884 43.1329 4.23769C42.7991 3.14689 42.3689 2.64631 41.553 2.39976C40.8484 2.19057 40.0325 2.31758 39.1498 2.78827C38.5342 3.10953 37.7553 3.75206 37.429 4.20034C37.2955 4.37965 37.1545 4.52907 37.1175 4.53654C37.0804 4.53654 37.0804 4.3647 37.11 4.14057C37.2213 3.40838 37.1916 2.88539 37.0359 2.77332C36.8356 2.6239 34.7958 2.6239 34.4472 2.77332C34.1208 2.90781 34.0467 3.14689 33.9503 4.31241C33.8761 5.26873 33.4978 7.15896 33.164 8.23482C32.6745 9.81126 31.7547 10.7676 30.4641 11.044C29.8633 11.171 28.7952 11.0963 28.4169 10.9021C28.2389 10.8124 28.098 10.6929 28.098 10.648C28.098 10.5957 28.2092 10.4388 28.3502 10.2894C28.4911 10.1475 28.8768 9.60953 29.2106 9.09401C29.5518 8.5785 30.1822 7.70436 30.6199 7.15149C31.8586 5.57505 32.0514 5.23884 32.1478 4.55149C32.1998 4.11815 32.0514 3.70723 31.777 3.52045C31.3913 3.2739 30.5976 3.04229 29.2254 2.7808C26.8148 2.32505 26.0953 2.16815 25.984 2.07103C25.9173 2.01873 25.8728 1.84689 25.8728 1.66758C25.8728 1.36873 25.6948 0.898038 25.4722 0.621601C25.4129 0.546888 25.1681 0.434819 24.9308 0.382521C24.4486 0.270452 24.3596 0.26298 24.0926 0.345164ZM18.4777 5.14172C18.9376 5.26873 19.0785 5.45551 19.0266 5.89631C18.8931 7.00953 17.6618 7.90608 16.0077 8.10781L15.4737 8.17505L15.5108 7.80896C15.6368 6.76298 16.6085 5.52275 17.5654 5.18654C17.9733 5.04459 18.1142 5.03712 18.4777 5.14172ZM59.0505 5.17907L59.3991 5.29861V5.75436C59.3991 6.32218 59.2137 6.73309 58.7612 7.15149C58.1975 7.67447 57.0478 8.12275 56.269 8.12275C55.8685 8.12275 55.8685 8.11528 56.0168 7.55493C56.2839 6.55378 57.0627 5.58252 57.8637 5.26126C58.42 5.03712 58.5981 5.02218 59.0505 5.17907ZM69.4125 5.1716C69.6944 5.32103 69.7834 5.49287 69.7834 5.91126C69.7834 6.21011 69.7389 6.29976 69.3384 6.76298C69.0936 7.04689 68.8043 7.33827 68.7005 7.41298C68.3964 7.6147 66.8239 8.12275 66.505 8.12275C66.1563 8.12275 66.1489 8.03309 66.4085 7.32332C66.7868 6.30723 67.4692 5.54516 68.2629 5.24631C68.7969 5.04459 69.1233 5.02218 69.4125 5.1716Z" fill="black" style="fill:black;fill-opacity:1;"/>
</svg>
